<svg width="16" height="16" viewBox="0 0 16 16" fill="none" xmlns="http://www.w3.org/2000/svg">
<path d="M4 1.5H2.5C1.94772 1.5 1.5 1.94772 1.5 2.5V13.5C1.5 14.0523 1.94772 14.5 2.5 14.5H13.5C14.0523 14.5 14.5 14.0523 14.5 13.5V2.5C14.5 1.94772 14.0523 1.5 13.5 1.5H12" stroke="#6D7383"/>
<path d="M3.5 1V2.5C3.5 3.05228 3.94772 3.5 4.5 3.5H11.5C12.0523 3.5 12.5 3.05228 12.5 2.5V1" stroke="#6D7383"/>
<rect x="5.25" y="1.25" width="5.5" height="0.5" rx="0.25" stroke="#6D7383" stroke-width="0.5"/>
<circle cx="8" cy="7.5" r="2" stroke="#6D7383"/>
<path d="M13 15C13 12.2386 10.7614 10 8 10C5.23858 10 3 12.2386 3 15" stroke="#6D7383"/>
</svg>