<svg width="16" height="16" viewBox="0 0 16 16" fill="none" xmlns="http://www.w3.org/2000/svg">
<circle cx="8" cy="8" r="6.5" stroke="#6D7383"/>
<rect x="3.15433" y="12.1992" width="12.8409" height="0.5" transform="rotate(-45 3.15433 12.1992)" fill="white" stroke="#6D7383" stroke-width="0.5"/>
<mask id="path-3-inside-1_1597_455" fill="white">
<path d="M8.5 1.5V8H7.5V1.5H8.5Z"/>
</mask>
<path d="M8.5 1.5V8H7.5V1.5H8.5Z" fill="white"/>
<path d="M8.5 1.5H9.5V0.5H8.5V1.5ZM8.5 8V9H9.5V8H8.5ZM7.5 8H6.5V9H7.5V8ZM7.5 1.5V0.5L6.5 0.5V1.5H7.5ZM8.5 7H7.5V9H8.5V7ZM7.5 2.5H8.5V0.5H7.5V2.5ZM7.5 1.5V8H9.5V1.5H7.5ZM8.5 8V1.5H6.5V8H8.5Z" fill="#6D7383" mask="url(#path-3-inside-1_1597_455)"/>
<mask id="path-5-inside-2_1597_455" fill="white">
<path d="M10.8828 2.57666L8.37277 5.0867L7.66566 4.3796L10.1757 1.86955L10.8828 2.57666Z"/>
</mask>
<path d="M10.8828 2.57666L8.37277 5.0867L7.66566 4.3796L10.1757 1.86955L10.8828 2.57666Z" fill="white"/>
<path d="M10.8828 2.57666L11.5899 3.28377L12.297 2.57666L11.5899 1.86955L10.8828 2.57666ZM8.37277 5.0867L7.66566 5.79381L8.37277 6.50092L9.07988 5.79381L8.37277 5.0867ZM7.66566 4.3796L6.95856 3.67249L6.25145 4.3796L6.95856 5.0867L7.66566 4.3796ZM10.1757 1.86955L10.8828 1.16245L10.1757 0.45534L9.4686 1.16245L10.1757 1.86955ZM9.07988 4.3796L8.37277 3.67249L6.95856 5.0867L7.66566 5.79381L9.07988 4.3796ZM9.4686 2.57666L10.1757 3.28377L11.5899 1.86955L10.8828 1.16245L9.4686 2.57666ZM10.1757 1.86955L7.66566 4.3796L9.07988 5.79381L11.5899 3.28377L10.1757 1.86955ZM8.37277 5.0867L10.8828 2.57666L9.4686 1.16245L6.95856 3.67249L8.37277 5.0867Z" fill="#6D7383" mask="url(#path-5-inside-2_1597_455)"/>
<mask id="path-7-inside-3_1597_455" fill="white">
<path d="M7.80078 7.5H14.3008V8.5H7.80078V7.5Z"/>
</mask>
<path d="M7.80078 7.5H14.3008V8.5H7.80078V7.5Z" fill="white"/>
<path d="M7.80078 7.5V6.5H6.80078V7.5H7.80078ZM14.3008 7.5H15.3008V6.5H14.3008V7.5ZM14.3008 8.5V9.5H15.3008V8.5H14.3008ZM7.80078 8.5H6.80078V9.5H7.80078V8.5ZM13.3008 7.5V8.5H15.3008V7.5H13.3008ZM8.80078 8.5V7.5H6.80078V8.5H8.80078ZM7.80078 8.5H14.3008V6.5H7.80078V8.5ZM14.3008 7.5H7.80078V9.5H14.3008V7.5Z" fill="#6D7383" mask="url(#path-7-inside-3_1597_455)"/>
<mask id="path-9-inside-4_1597_455" fill="white">
<path d="M10.5 7.73096L13.3993 4.83166L14.1064 5.53877L11.2071 8.43806L10.5 7.73096Z"/>
</mask>
<path d="M10.5 7.73096L13.3993 4.83166L14.1064 5.53877L11.2071 8.43806L10.5 7.73096Z" fill="white"/>
<path d="M10.5 7.73096L9.79289 7.02385L9.08579 7.73096L9.79289 8.43806L10.5 7.73096ZM13.3993 4.83166L14.1064 4.12456L13.3993 3.41745L12.6922 4.12456L13.3993 4.83166ZM14.1064 5.53877L14.8135 6.24588L15.5206 5.53877L14.8135 4.83166L14.1064 5.53877ZM11.2071 8.43806L10.5 9.14517L11.2071 9.85228L11.9142 9.14517L11.2071 8.43806ZM12.6922 5.53877L13.3993 6.24588L14.8135 4.83166L14.1064 4.12456L12.6922 5.53877ZM11.9142 7.73096L11.2071 7.02385L9.79289 8.43806L10.5 9.14517L11.9142 7.73096ZM11.2071 8.43806L14.1064 5.53877L12.6922 4.12456L9.79289 7.02385L11.2071 8.43806ZM13.3993 4.83166L10.5 7.73096L11.9142 9.14517L14.8135 6.24588L13.3993 4.83166Z" fill="#6D7383" mask="url(#path-9-inside-4_1597_455)"/>
</svg>