<svg width="16" height="16" viewBox="0 0 16 16" fill="none" xmlns="http://www.w3.org/2000/svg">
<path d="M1.5 1V14C1.5 14.2761 1.72386 14.5 2 14.5H15" stroke="#6D7383" stroke-linecap="round"/>
<rect x="4" y="10" width="3" height="1" rx="0.5" transform="rotate(90 4 10)" fill="#6D7383"/>
<rect x="7" y="8" width="5" height="1" rx="0.5" transform="rotate(90 7 8)" fill="#6D7383"/>
<rect x="10" y="9" width="4" height="1" rx="0.5" transform="rotate(90 10 9)" fill="#6D7383"/>
<rect x="13" y="7" width="6" height="1" rx="0.5" transform="rotate(90 13 7)" fill="#6D7383"/>
<path d="M3 8L6.5 5.42857L9.5 6.71429L14 2" stroke="#6D7383" stroke-linecap="round"/>
<path d="M14.5 4.5L14.5 2C14.5 1.72386 14.2761 1.5 14 1.5L11.5 1.5" stroke="#6D7383" stroke-linecap="round"/>
</svg>