<svg width="132" height="17" viewBox="0 0 132 17" fill="none" xmlns="http://www.w3.org/2000/svg">
<path fill-rule="evenodd" clip-rule="evenodd" d="M83.3539 0.0135271L85.8269 10.6335L90.3411 0.0135271H94.2096L86.9091 16.1379H83.6366L79.6012 0.0135271H83.3539ZM40.2319 3.19629C44.3611 3.29566 46.775 6.27364 46.4425 9.83979C46.11 13.4059 42.8289 16.2194 38.7421 16.1105C34.6553 16.0015 32.1423 13.0815 32.4793 9.46696C32.8163 5.85242 36.1027 3.09692 40.2319 3.19629ZM125.345 3.19629C129.474 3.29566 131.888 6.27364 131.556 9.83979C131.223 13.4059 127.942 16.2194 123.855 16.1105C119.769 16.0015 117.256 13.0815 117.593 9.46696C117.93 5.85242 121.216 3.09692 125.345 3.19629ZM56.1357 3.29579C56.3545 3.29621 56.5757 3.29766 56.7995 3.29857L57.1371 3.29935L56.5948 6.4285C53.6868 6.4285 52.2009 7.11102 51.6337 10.1505C51.3288 11.7839 51.0376 13.459 50.7465 15.1087L50.5717 16.095H47.0127L48.4129 8.44134C48.6802 6.97768 49.4396 5.72411 50.5176 4.82388C52.1802 3.43496 53.9382 3.3008 55.8906 3.29582L56.1357 3.29579ZM20.6039 0.0135271L23.1883 7.36565L28.2658 0.0135271H32.3592L29.5196 16.0895H26.0809L27.9297 5.42839L22.0787 13.9288C21.065 11.0723 20.0536 8.21488 19.0409 5.35791L17.1806 16.0915H13.7868L16.6263 0.0135271H20.6039ZM105.722 0.0135271L108.307 7.36565L113.384 0.0135271H117.478L114.638 16.0895H111.2L113.048 5.42839L107.197 13.9288C106.184 11.0723 105.172 8.21488 104.16 5.35791L102.299 16.0915H98.9054L101.745 0.0135271H105.722ZM98.5849 4.55716L96.548 16.0915H93.1746L95.2114 4.55716H98.5849ZM8.59185 0C11.0073 0 13.1854 0.968388 14.0997 2.27082L14.1466 2.33968L14.1337 2.35147L11.5688 4.33662C10.9093 3.61702 9.73515 2.93651 8.27248 2.93651C6.9698 2.93651 6.08498 3.53338 6.08498 4.53618C6.08498 5.44334 7.09266 5.87308 8.12484 6.27898C10.2879 7.11461 12.8685 7.9979 12.8685 10.7912C12.8685 14.3723 9.91907 16.0914 6.23249 16.0914C3.58113 16.0914 1.14248 15.035 0.0525119 13.3728L0 13.2906L2.58784 11.2879C3.39364 12.3088 5.10781 13.0116 6.5029 13.0116C7.95289 13.0116 8.98533 12.3669 8.98533 11.3165C8.98533 10.1466 7.63338 9.83633 6.06035 9.26327C4.26612 8.66637 2.20172 7.44885 2.20172 5.01361C2.20172 2.02932 4.78243 0 8.59185 0ZM70.4473 10.3444L70.4018 10.5515H61.3438C61.2208 12.3835 62.7206 13.3411 64.3673 13.3411C65.5578 13.3411 66.6219 12.807 67.5585 11.9847L67.6488 11.9042L69.332 13.8956C67.7099 15.4864 65.5717 16.0891 63.8266 16.0891C58.3678 16.0891 56.3163 9.81604 59.2195 5.99767C63.2317 0.720486 71.8477 3.55022 70.4473 10.3444ZM36.3193 9.58699C36.1627 11.2429 37.1288 12.8459 39.095 12.8976C41.0612 12.9493 42.4324 11.5539 42.6199 9.74193C42.8075 7.92998 41.8168 6.51023 39.7099 6.4569C37.603 6.40357 36.4759 7.93108 36.3193 9.58699ZM121.433 9.58699C121.276 11.2429 122.242 12.8459 124.208 12.8976C126.174 12.9493 127.546 11.5539 127.733 9.74193C127.921 7.92998 126.93 6.51023 124.823 6.4569C122.716 6.40357 121.589 7.93108 121.433 9.58699ZM61.741 8.13985L61.7124 8.22851H67.2066C67.3236 5.36272 62.7194 5.24443 61.741 8.13985ZM99.3875 0.0135271L98.8168 3.24407H95.4434L96.0141 0.0135271H99.3875Z" fill="white"/>
</svg>